<?xml version="1.0" encoding="utf-8"?>
<!DOCTYPE svg PUBLIC "-//W3C//DTD SVG 1.1//EN" "http://www.w3.org/Graphics/SVG/1.1/DTD/svg11.dtd">
<svg version="1.1" id="Layer_1" xmlns="http://www.w3.org/2000/svg" xmlns:xlink="http://www.w3.org/1999/xlink" x="0px" y="0px"
	 width="595px" height="126.589px" viewBox="0 0 595 126.589" enable-background="new 0 0 595 126.589" xml:space="preserve">
<path fill="#434346" d="M595,121.814v-11.376c0-1.833-1.469-2.752-3.852-2.752h-14.492c-7.891,0-11.194-1.275-11.194-8.616V39.82
	h25.868c2.02,0,3.67-1.659,3.67-3.672V25.325c0-2.02-1.65-3.67-3.67-3.67h-25.868V3.675c0-1.833-1.465-3.675-3.12-3.675h-0.549
	l-17.06,2.941c-2.02,0.368-3.67,1.649-3.67,3.673V99.07c0,21.283,10.821,27.519,28.983,27.519c7.71,0,17.064-0.734,21.465-1.475
	C593.899,124.751,595,123.652,595,121.814 M495.361,64.575h-38.893v-0.731c0-14.491,8.257-22.558,19.633-22.558
	c11.369,0,19.26,8.257,19.26,22.558V64.575z M519.762,77.242V66.965c0-27.334-15.411-46.592-43.662-46.592
	c-28.069,0-44.031,17.978-44.031,46.592v13.577c0,36.137,26.05,46.047,44.394,46.047c16.506,0,23.663-0.924,35.59-3.119
	c3.304-0.556,3.854-1.837,3.854-4.771v-12.111c0-1.832-1.468-2.75-3.304-2.75h-0.55c-7.707,0.729-20.359,1.834-33.753,1.834
	c-17.605,0-22.013-12.663-22.013-23.3v-0.548h59.811C518.661,81.826,519.762,80.168,519.762,77.242 M415.102,121.451V106.59
	c0-1.831-1.47-2.927-3.301-2.927h-39.996c-0.734,0-1.101-0.19-1.101-0.739l0.369-0.546l42.743-58.521
	c0.55-0.731,0.919-3.303,0.919-4.222V29.184c0-4.035-3.301-7.521-7.339-7.521h-62.375c-2.019,0-3.669,1.65-3.669,3.668v13.025
	c0,1.833,1.47,2.935,3.304,2.935h41.457c0.555,0,1.105,0.184,1.105,0.551c0,0.363-0.185,0.55-0.551,1.1l-44.396,61.085
	c-1.655,2.2-2.384,3.851-2.384,5.867v7.891c0,4.035,3.305,7.336,7.335,7.336h64.215C413.451,125.114,415.102,123.47,415.102,121.451
	 M299.293,80.902c0,15.049-6.791,24.769-19.63,24.769c-12.84,0-19.628-9.72-19.628-24.769V66.044
	c0-15.043,6.788-24.764,19.628-24.764c12.843,0,19.63,9.721,19.63,24.764V80.902z M323.51,80.902V66.044
	c0-26.23-15.049-45.679-43.849-45.679c-28.802,0-43.844,19.449-43.844,45.679v14.858c0,26.236,15.042,45.682,43.844,45.682
	C308.461,126.586,323.51,107.139,323.51,80.902 M63.288,64.575H24.4v-0.731c0-14.491,8.252-22.558,19.629-22.558
	c11.373,0,19.259,8.257,19.259,22.558V64.575z M87.691,77.242V66.965c0-27.334-15.412-46.592-43.662-46.592
	C15.963,20.373,0,38.351,0,66.965v13.577c0,36.137,26.05,46.047,44.394,46.047c16.511,0,23.667-0.924,35.591-3.119
	c3.304-0.556,3.855-1.837,3.855-4.771v-12.111c0-1.832-1.47-2.75-3.304-2.75h-0.552c-7.706,0.729-20.36,1.834-33.753,1.834
	c-17.614,0-22.019-12.663-22.019-23.3v-0.548h59.808C86.59,81.826,87.691,80.168,87.691,77.242"/>
<path fill="#39C2D7" d="M192.239,73.425l25.837-35.266c3.644-4.976,2.566-11.962-2.407-15.607
	c-4.976-3.644-11.962-2.567-15.607,2.409l-35.508,48.464l35.508,48.465c3.645,4.976,10.631,6.052,15.607,2.408
	c4.973-3.645,6.051-10.631,2.407-15.607L192.239,73.425"/>
<path fill="#ED174D" d="M129.492,73.425l-25.837-35.266c-3.644-4.976-2.565-11.962,2.408-15.607
	c4.975-3.644,11.962-2.567,15.607,2.409l35.508,48.464l-35.508,48.465c-3.645,4.976-10.632,6.052-15.607,2.408
	c-4.973-3.645-6.051-10.631-2.408-15.607L129.492,73.425"/>
</svg>
