<svg version="1.1" id="Capa_1" xmlns="http://www.w3.org/2000/svg" xmlns:xlink="http://www.w3.org/1999/xlink" x="0px" y="0px"
	 width="16.877px" height="16.877px" viewBox="0 0 16.877 16.877" enable-background="new 0 0 16.877 16.877" xml:space="preserve">
<path d="M5.715,5.963L2.333,2.58c0.437-0.437,0.873-0.874,1.31-1.312c0.202-0.202,0.528-0.206,0.731-0.006L7.01,3.9
	c0.201,0.201,0.201,0.533-0.003,0.736L6.43,5.212L5.893,5.749C5.827,5.816,5.767,5.887,5.715,5.963z M8.498,11.477
	C7.944,11,7.413,10.493,6.897,9.979C6.383,9.461,5.878,8.931,5.401,8.375C5.01,7.923,4.934,7.27,5.139,6.72L1.667,3.247
	c-0.808,0.831-0.705,2.89,0.181,4.7c0.38,0.783,0.873,1.49,1.382,2.162c0.509,0.666,1.067,1.297,1.654,1.889
	c0.589,0.59,1.216,1.152,1.885,1.66c0.671,0.512,1.38,1.001,2.157,1.38c1.812,0.884,3.873,0.981,4.702,0.173l-3.473-3.473
	C9.606,11.94,8.95,11.866,8.498,11.477z M15.61,12.501l-2.635-2.636c-0.202-0.199-0.533-0.199-0.736,0.003h-0.002l-0.578,0.578
	l-0.533,0.536c-0.066,0.065-0.139,0.124-0.215,0.178l3.381,3.383c0.438-0.438,0.875-0.874,1.312-1.311
	C15.81,13.03,15.812,12.704,15.61,12.501z"/>
</svg>
